<svg xmlns="http://www.w3.org/2000/svg" viewBox="7.8 35.2 1237.5 1237.5"><rect x="7.8" y="35.2" width="1237.5" height="1237.5" rx="270.7" fill="#65172B"/><path d="M608.0 1047.5C585.0 1044.6 565.0 1039.4 544.2 1031.1C488.4 1008.8 441.8 965.2 412.0 907.7C402.0 888.4 396.7 875.9 389.7 854.4C374.3 807.6 367.9 764.2 367.9 706.4C368.0 666.7 369.9 635.8 375.0 594.8C378.9 563.7 379.1 566.1 373.2 567.1C351.4 570.5 323.8 579.0 305.3 588.0C278.4 600.9 258.6 616.5 238.3 640.8C226.6 654.7 222.8 657.2 212.0 657.8C201.5 658.4 195.2 656.3 188.9 650.0C179.1 640.2 178.5 625.9 187.1 608.7C204.9 573.3 256.9 536.9 316.0 518.7C336.1 512.4 351.1 509.3 384.7 504.4C387.1 504.0 388.1 503.3 388.5 501.7C388.7 500.5 390.1 493.2 391.6 485.5C393.0 477.8 396.7 461.6 399.7 449.5C417.3 379.1 440.7 331.7 474.1 298.9C500.1 273.4 534.0 258.8 563.5 260.3C581.4 261.3 594.0 265.7 603.9 274.6C617.0 286.4 619.6 302.1 612.4 326.0C609.9 334.3 598.3 361.1 593.3 370.0C585.2 384.8 560.2 439.3 552.3 459.5C546.5 474.4 538.1 499.3 538.6 500.2C539.3 501.3 571.4 501.2 592.6 500.0C628.5 497.9 652.2 494.1 682.5 485.6C702.1 480.0 708.2 479.7 716.1 483.8C720.2 485.9 722.5 488.0 725.7 492.8C738.3 511.4 731.0 537.1 710.5 546.6C699.0 551.9 669.4 557.4 638.5 560.0C618.1 561.7 570.8 563.1 545.6 562.8L522.6 562.5L520.3 574.0C505.3 648.1 499.6 710.6 503.0 766.0C507.9 845.2 524.2 904.9 552.3 946.5C555.7 951.5 563.2 960.3 569.0 966.1C577.5 974.6 581.4 977.7 589.5 982.2C607.3 992.1 621.9 996.0 641.5 996.0C654.2 996.0 670.7 993.5 684.4 989.5C694.2 986.6 715.3 978.4 723.2 974.4L728.2 971.9L726.3 969.7C725.3 968.5 722.1 964.9 719.3 961.8C711.5 953.1 696.3 933.8 687.8 922.0C656.3 878.2 634.1 827.3 626.0 780.5C616.5 724.9 625.5 674.3 651.8 636.5C659.6 625.2 676.7 608.7 687.4 602.1C715.6 584.6 748.7 582.3 775.5 595.8C797.8 607.0 816.5 628.7 826.5 655.0C828.4 659.9 830.2 665.5 830.6 667.4C830.9 669.4 831.5 671.0 831.9 671.0C832.2 671.0 834.4 668.2 836.7 664.7C852.6 641.1 877.7 613.9 897.5 598.9C925.6 577.6 952.7 567.0 979.5 567.0C995.2 567.0 1006.1 569.4 1019.5 575.9C1032.0 581.8 1038.3 586.4 1047.6 596.2C1059.0 608.2 1066.6 623.4 1070.6 642.0C1073.3 654.5 1073.1 681.5 1070.2 697.0C1065.6 721.6 1058.2 742.6 1044.9 769.1C1023.9 810.8 995.8 847.3 950.9 891.5C884.7 956.6 810.9 1005.7 742.6 1030.1C722.2 1037.4 702.8 1042.3 679.9 1046.1C663.8 1048.8 623.8 1049.6 608.0 1047.5ZM785.8 937.6C834.2 904.0 886.5 853.7 920.4 808.3C959.5 755.6 980.9 707.7 978.7 677.1C977.4 658.5 968.2 648.0 953.1 648.0C934.8 648.0 909.4 663.3 884.0 689.6C871.1 703.0 860.0 717.2 846.0 738.0C830.6 761.1 827.2 764.0 816.4 764.0C806.5 764.0 799.8 758.5 796.5 747.6C795.7 745.1 794.4 736.5 793.5 728.6C790.4 700.1 784.7 685.4 771.5 671.7C765.2 665.2 760.6 662.4 753.2 660.5C741.5 657.5 731.8 661.3 720.4 673.2C709.8 684.4 701.7 702.4 697.3 724.5C694.8 737.2 694.8 777.2 697.4 790.9C703.5 823.5 716.4 857.6 733.4 885.8C747.0 908.4 774.8 944.8 777.3 943.4C778.0 943.0 781.8 940.4 785.8 937.6ZM927.8 522.9C924.8 520.0 924.7 519.6 925.3 513.6C926.6 500.3 944.1 460.7 960.8 433.6C975.4 409.8 990.6 393.8 1004.7 387.2C1016.9 381.5 1030.7 384.4 1035.8 393.8C1043.5 407.8 1037.1 424.3 1012.9 452.5C999.0 468.7 948.7 519.0 942.6 522.9C936.0 527.0 931.9 527.0 927.8 522.9ZM819.5 516.6C810.1 512.4 760.6 463.5 745.9 443.8C731.7 424.7 731.9 407.2 746.3 399.8C752.5 396.7 762.5 397.6 771.1 402.1C792.1 413.2 815.2 447.4 831.6 491.8C834.0 498.5 835.0 502.8 835.0 507.0C835.0 512.3 834.7 513.1 831.9 515.4C828.5 518.3 824.3 518.7 819.5 516.6ZM871.1 503.4C867.5 500.4 864.8 492.4 860.1 471.0C850.5 426.9 845.2 387.3 846.5 368.0C848.4 339.7 858.4 324.0 874.6 324.0C879.0 324.0 887.5 328.6 890.8 332.8C901.2 345.9 903.6 364.6 900.6 405.5C897.6 444.6 890.6 492.1 886.5 499.9C883.2 506.4 876.4 507.9 871.1 503.4Z" fill="#FFFFE5" fill-rule="evenodd"/></svg>
